<svg width="23" height="23" viewBox="0 0 23 23" fill="none" xmlns="http://www.w3.org/2000/svg">
<g clip-path="url(#clip0_586_1419)">
<path d="M7.8465 1.22361C5.64836 1.98616 3.75268 3.43352 2.43792 5.35308C1.12316 7.27264 0.458609 9.56323 0.541884 11.8884C0.625159 14.2136 1.45187 16.4507 2.90058 18.2713C4.3493 20.0919 6.34366 21.3999 8.59072 22.0033C10.4125 22.4734 12.3211 22.494 14.1526 22.0635C15.8117 21.6908 17.3457 20.8936 18.6042 19.75C19.914 18.5234 20.8647 16.963 21.3542 15.2366C21.8861 13.3591 21.9808 11.3847 21.6309 9.46501H11.4009V13.7086H17.3254C17.207 14.3854 16.9533 15.0314 16.5794 15.6079C16.2055 16.1844 15.7192 16.6795 15.1495 17.0636C14.426 17.5422 13.6105 17.8642 12.7552 18.0089C11.8975 18.1684 11.0177 18.1684 10.1599 18.0089C9.29057 17.8292 8.46817 17.4704 7.74509 16.9553C6.58347 16.1331 5.71126 14.9649 5.2529 13.6175C4.78681 12.2449 4.78681 10.7568 5.2529 9.38423C5.57917 8.4221 6.11853 7.54609 6.83072 6.82157C7.64573 5.97723 8.67757 5.37369 9.81302 5.07717C10.9485 4.78065 12.1436 4.80261 13.2674 5.14064C14.1453 5.41012 14.9481 5.88097 15.6118 6.51564C16.2798 5.85105 16.9467 5.18475 17.6124 4.51673C17.9562 4.15751 18.3309 3.81548 18.6695 3.44767C17.6564 2.50489 16.4672 1.7713 15.1701 1.28892C12.808 0.431245 10.2235 0.408195 7.8465 1.22361Z" fill="#1E2F22"/>
<path d="M7.84651 1.22359C10.2233 0.407622 12.8078 0.430064 15.1701 1.28718C16.4674 1.77284 17.6561 2.50996 18.6678 3.45624C18.324 3.82406 17.9614 4.16781 17.6107 4.52531C16.9439 5.19103 16.2776 5.85447 15.6118 6.51562C14.9481 5.88095 14.1453 5.4101 13.2674 5.14062C12.144 4.80141 10.9489 4.77818 9.81314 5.07349C8.67739 5.36879 7.64492 5.97122 6.82901 6.81468C6.11682 7.5392 5.57746 8.41521 5.2512 9.37734L1.68823 6.61874C2.96356 4.08971 5.17171 2.15519 7.84651 1.22359Z" fill="#1E2F22"/>
<path d="M0.742905 9.35159C0.934411 8.40248 1.25235 7.48335 1.68822 6.61877L5.25119 9.38424C4.78509 10.7568 4.78509 12.2449 5.25119 13.6175C4.0641 14.5342 2.87645 15.4554 1.68822 16.3813C0.59707 14.2093 0.264289 11.7346 0.742905 9.35159Z" fill="#1E2F22"/>
<path d="M11.4009 9.46326H21.6309C21.9808 11.383 21.8862 13.3574 21.3542 15.2348C20.8648 16.9613 19.914 18.5217 18.6042 19.7483C17.4543 18.8511 16.2993 17.9608 15.1495 17.0636C15.7196 16.679 16.2061 16.1834 16.58 15.6063C16.9539 15.0292 17.2075 14.3826 17.3254 13.7051H11.4009C11.3992 12.2923 11.4009 10.8778 11.4009 9.46326Z" fill="#1E2F22"/>
<path d="M1.68652 16.3812C2.87475 15.4646 4.06241 14.5433 5.24949 13.6175C5.70876 14.9653 6.58222 16.1336 7.74512 16.9553C8.47044 17.4679 9.29462 17.8238 10.1651 18.0003C11.0229 18.1598 11.9027 18.1598 12.7604 18.0003C13.6157 17.8555 14.4312 17.5335 15.1546 17.055C16.3045 17.9522 17.4595 18.8425 18.6093 19.7397C17.351 20.8839 15.8171 21.6817 14.1578 22.0548C12.3263 22.4854 10.4176 22.4648 8.5959 21.9947C7.15507 21.61 5.80925 20.9318 4.64277 20.0026C3.40813 19.0224 2.39973 17.7871 1.68652 16.3812Z" fill="#1E2F22"/>
</g>
<defs>
<clipPath id="clip0_586_1419">
<rect width="22" height="22" fill="white" transform="translate(0.182617 0.5)"/>
</clipPath>
</defs>
</svg>
