<svg width="20" height="20" viewBox="0 0 20 20" fill="none" xmlns="http://www.w3.org/2000/svg">
<path d="M15.8337 10C15.7148 10 15.6156 9.96003 15.5362 9.88003C15.4567 9.80003 15.417 9.70114 15.417 9.58336V5.92336L13.9412 7.37836C13.8634 7.45614 13.7695 7.49336 13.6595 7.49003C13.5489 7.48614 13.4523 7.44336 13.3695 7.36169C13.2934 7.28781 13.2553 7.19336 13.2553 7.07836C13.2553 6.96336 13.2942 6.86669 13.372 6.78836L15.3628 4.81419C15.4973 4.67919 15.6542 4.61169 15.8337 4.61169C16.0131 4.61169 16.1703 4.67919 16.3053 4.81419L18.2953 6.78919C18.3764 6.86975 18.4142 6.96503 18.4087 7.07503C18.4031 7.18503 18.3598 7.28336 18.2787 7.37003C18.1975 7.45669 18.1014 7.50003 17.9903 7.50003C17.8792 7.50003 17.7828 7.45947 17.7012 7.37836L16.2512 5.92836V9.58336C16.2512 9.70169 16.2112 9.80058 16.1312 9.88003C16.0512 9.95947 15.952 9.99947 15.8337 10ZM3.77532 16.8267C3.48643 16.8267 3.28171 16.7034 3.16116 16.4567C3.0406 16.21 3.0631 15.9745 3.22866 15.75L5.37616 12.8667C5.44338 12.7772 5.52477 12.71 5.62032 12.665C5.71588 12.62 5.81393 12.5978 5.91449 12.5984C6.01505 12.5989 6.11338 12.6211 6.20949 12.665C6.3056 12.7089 6.38671 12.7764 6.45282 12.8675L8.79949 15.9934H15.9145L11.7478 10.4517L9.57782 13.3367C9.48616 13.4517 9.3881 13.51 9.28366 13.5117C9.17866 13.5134 9.08032 13.4839 8.98866 13.4234C8.89643 13.3622 8.83588 13.2748 8.80699 13.1609C8.7781 13.047 8.80977 12.9325 8.90199 12.8175L11.2095 9.75836C11.2767 9.66836 11.3581 9.60086 11.4537 9.55586C11.5492 9.51086 11.6473 9.48864 11.7478 9.48919C11.8484 9.48975 11.9467 9.51197 12.0428 9.55586C12.1389 9.59975 12.22 9.66697 12.2862 9.75753L16.7737 15.75C16.9392 15.9745 16.9606 16.21 16.8378 16.4567C16.715 16.7034 16.5142 16.8267 16.2353 16.8267H3.77532Z" fill="#1E2F22"/>
</svg>
